<svg id="Calque_1" data-name="Calque 1" xmlns="http://www.w3.org/2000/svg" xmlns:xlink="http://www.w3.org/1999/xlink"
    viewBox="0 0 118.39 119.05">
    <defs>
        <clipPath id="clip-path" transform="translate(-1.98 -1.67)">
            <rect width="122" height="122" style="fill:none" />
        </clipPath>
    </defs>
    <g style="clip-path:url(#clip-path)">
        <path
            d="M57.79,90.35c13.36,0,24.29,3.52,31.42,9,29.09-27,26-46.59-21.4-47.13l-7.14,8.31c33.79-.85,47.78,13.92,25.5,32.43,3.46-14.14-9.45-11.68-40.37-14.38C34.69,91.25,11.07,104.76,7.7,86.84c.81-12.85,17.71-10,15.63,3.35,5-.32,12-4.15,18.82-12C14.69,77.63,3.3,61.5,17.41,43.55c-1,10.27,12.88,15.2,39.47,16.77l7-8.47c-28.23-1.11-40.22-4.47-40.22-20.12C21.52.81,79-5.39,100.9,11l4.25-2.56,2,2.72C98.47,17.35,89.06,24.06,80.56,33.8c26.87,3,39.31,11.35,39.31,28.92-.66,20.54-28.74,36.54-42.5,56.39-26.1-10.77-52.46-14.69-73.92,0C13.31,101.38,33.65,90.35,57.79,90.35ZM83.44,26C70.25,12.43,38.82-.39,34.26,20.7c0,11.35,12.6,11,42.81,12.78Z"
            transform="translate(-1.98 -1.67)"
            style="fill:transparent;stroke:rgba(255,255,255,0.025);stroke-miterlimit:10" />
    </g>
</svg>